<svg width="13" height="13" viewBox="0 0 13 13" fill="none" xmlns="http://www.w3.org/2000/svg">
<path d="M7.22222 0H5.77778V7.22222H7.22222V0ZM10.7106 1.56722L9.685 2.59278C10.8261 3.51 11.5556 4.91833 11.5556 6.5C11.5556 9.295 9.295 11.5556 6.5 11.5556C3.705 11.5556 1.44444 9.295 1.44444 6.5C1.44444 4.91833 2.17389 3.51 3.30778 2.58556L2.28944 1.56722C0.888333 2.75889 0 4.52111 0 6.5C0 10.0894 2.91056 13 6.5 13C10.0894 13 13 10.0894 13 6.5C13 4.52111 12.1117 2.75889 10.7106 1.56722Z" fill="white"/>
</svg>
