<svg width="18" height="18" viewBox="0 0 18 18" fill="none" xmlns="http://www.w3.org/2000/svg">
<path fill-rule="evenodd" clip-rule="evenodd" d="M8.63261 2.88219C7.04693 2.88219 5.7626 4.16653 5.7626 5.75221C5.7626 7.3379 7.04693 8.62223 8.63261 8.62223C10.2183 8.62223 11.5026 7.3379 11.5026 5.75221C11.5026 4.16653 10.2183 2.88219 8.63261 2.88219ZM10.1398 5.75224C10.1398 4.91993 9.46536 4.24548 8.63305 4.24548C7.80075 4.24548 7.1263 4.91993 7.1263 5.75224C7.1263 6.58454 7.80075 7.259 8.63305 7.259C9.46536 7.259 10.1398 6.58454 10.1398 5.75224ZM13.0098 12.2098C13.0098 11.7506 10.764 10.703 8.63305 10.703C6.50207 10.703 4.25628 11.7506 4.25628 12.2098V12.999H13.0098V12.2098ZM2.89258 12.2098C2.89258 10.3012 6.71688 9.33973 8.63261 9.33973C10.5483 9.33973 14.3726 10.3012 14.3726 12.2098V14.3623H2.89258V12.2098Z" fill="white"/>
</svg>
